<?xml version="1.0" standalone="no"?>
<!DOCTYPE svg PUBLIC "-//W3C//DTD SVG 20010904//EN"
 "http://www.w3.org/TR/2001/REC-SVG-20010904/DTD/svg10.dtd">
<svg version="1.0" xmlns="http://www.w3.org/2000/svg"
 width="20.000000pt" height="15.000000pt" viewBox="0 0 150.000000 146.000000"
 preserveAspectRatio="xMidYMid meet">

<g transform="translate(0.000000,146.000000) scale(0.100000,-0.100000)"
fill="#000000" stroke="#000000" stroke-width="15">
<path d="M718 1424 c-55 -29 -31 -120 62 -234 92 -113 116 -192 80 -265 -14
-29 -28 -45 -40 -45 -22 0 -25 -5 -35 -47 -9 -44 3 -42 62 11 60 55 77 98 62
168 -10 47 -88 179 -123 207 -46 38 -70 136 -45 182 16 30 7 39 -23 23z"/>
<path d="M1138 1236 c-7 -13 -21 -37 -30 -54 -10 -17 -22 -72 -29 -129 -12
-109 -46 -201 -87 -234 -32 -25 -101 -44 -114 -31 -11 11 -58 -5 -58 -18 0
-22 115 -26 163 -6 72 30 109 107 127 269 6 49 17 101 25 117 16 32 56 66 88
76 20 6 20 7 2 20 -30 22 -72 17 -87 -10z"/>
<path d="M616 1215 c3 -22 16 -58 29 -81 22 -38 112 -163 125 -174 4 -3 10
-14 14 -25 5 -12 10 -15 13 -8 6 17 -19 61 -71 125 -38 47 -84 126 -110 188
-3 8 -3 -3 0 -25z"/>
<path d="M257 1213 c-13 -13 -7 -53 8 -53 8 0 15 -4 15 -9 0 -14 42 -38 80
-45 l35 -7 -41 20 c-25 13 -49 37 -63 61 -24 43 -24 43 -34 33z"/>
<path d="M240 1094 c0 -10 9 -34 21 -53 49 -81 104 -102 356 -137 32 -5 103
-67 103 -91 0 -18 17 -16 24 3 12 30 6 126 -10 159 -22 46 -117 106 -167 104
-14 0 -2 -8 30 -20 61 -24 109 -74 119 -125 9 -51 -5 -57 -54 -24 -43 29 -65
34 -185 45 -98 9 -182 55 -214 114 -14 27 -23 37 -23 25z"/>
<path d="M534 893 c34 -9 97 -54 93 -66 -2 -6 -23 -15 -47 -19 -49 -8 -71 -22
-155 -91 -74 -62 -127 -86 -185 -87 -59 0 -115 29 -115 60 0 14 -9 27 -23 33
-35 16 -37 1 -8 -43 39 -59 79 -80 152 -80 75 0 150 35 238 109 82 70 129 83
199 56 28 -11 20 18 -15 58 -38 42 -99 77 -131 76 -20 -1 -20 -2 -3 -6z"/>
<path d="M1315 875 c66 -36 79 -65 29 -65 -39 0 -84 -23 -154 -80 -100 -80
-152 -103 -222 -98 -62 5 -111 36 -106 67 2 10 -6 17 -19 19 -31 5 -29 -8 12
-55 38 -44 89 -73 129 -73 47 0 137 38 193 82 104 81 134 98 179 98 24 0 54
-4 68 -10 35 -13 34 6 -1 52 -37 46 -62 64 -103 72 l-35 7 30 -16z"/>
<path d="M614 722 c3 -5 -3 -21 -14 -35 -29 -37 -38 -65 -49 -172 -20 -172
-85 -263 -183 -253 -51 6 -102 -9 -78 -21 60 -32 156 -17 209 32 46 44 61 82
86 229 24 139 38 169 85 189 40 18 33 33 -19 37 -25 2 -41 -1 -37 -6z"/>
<path d="M776 668 c-8 -32 -7 -38 5 -38 6 0 25 -11 43 -25 18 -14 41 -25 52
-25 14 0 11 5 -14 20 -18 11 -42 36 -53 55 -12 19 -22 35 -24 35 -1 0 -5 -10
-9 -22z"/>
<path d="M699 664 c-13 -12 -14 -25 -7 -62 9 -49 36 -97 99 -172 46 -56 77
-116 84 -167 7 -46 -27 -122 -62 -138 -23 -10 -51 -61 -39 -72 13 -13 92 53
114 97 19 37 22 55 17 99 -6 56 -39 129 -78 172 -13 13 -33 40 -47 59 -13 19
-27 37 -30 40 -11 8 -29 70 -25 83 21 69 9 96 -26 61z"/>
<path d="M958 573 c7 -3 16 -2 19 1 4 3 -2 6 -13 5 -11 0 -14 -3 -6 -6z"/>
<path d="M776 533 c17 -70 103 -116 257 -138 142 -20 181 -40 207 -109 15 -42
31 -21 37 50 6 79 -14 124 -75 169 -45 32 -136 64 -149 51 -4 -3 2 -6 13 -6
33 0 119 -46 146 -78 29 -35 45 -99 29 -115 -8 -8 -19 -3 -38 15 -33 31 -76
44 -198 58 -105 13 -175 46 -206 97 -25 40 -31 42 -23 6z"/>
<path d="M602 510 c0 -14 2 -19 5 -12 2 6 2 18 0 25 -3 6 -5 1 -5 -13z"/>
<path d="M620 452 c0 -24 49 -109 94 -162 25 -29 52 -68 61 -87 9 -19 19 -32
21 -30 11 11 -29 84 -80 146 -29 36 -63 84 -74 106 -12 22 -21 34 -22 27z"/>
<!-- <animateTransform attributeType="xml" attributeName="transform" type="rotate" from="360 75 72" to="0 75 72" dur="0.5s" additive="sum" repeatCount="indefinite" /> -->
</g>
</svg>
