<svg xmlns="http://www.w3.org/2000/svg" version="1.0" preserveAspectRatio="xMidYMid meet" width="25.000000pt" height="25.000000pt" viewBox="26.1 62.04 369.4 349.46">

<g transform="translate(0.000000,500.000000) scale(0.100000,-0.100000)" fill="#000000" stroke="none">
<path d="M3061 4339 c-177 -118 -311 -371 -311 -586 0 -128 61 -333 137 -461 49 -82 193 -258 334 -407 210 -223 291 -352 305 -488 6 -62 5 -66 -20 -88 -44 -39 -65 -42 -72 -14 -3 14 -13 25 -22 25 -8 0 -28 13 -43 30 -26 27 -136 91 -167 96 -7 1 -24 10 -38 19 -30 19 -48 12 -34 -14 5 -10 6 -22 2 -26 -4 -5 -1 -5 6 -1 8 5 12 0 12 -12 0 -11 7 -25 16 -33 8 -7 13 -21 11 -31 -3 -10 -1 -18 5 -18 5 0 6 -4 3 -10 -3 -5 -1 -10 4 -10 6 0 11 -7 11 -15 0 -8 18 -24 40 -35 23 -12 38 -25 35 -30 -3 -5 1 -7 9 -4 20 7 58 -14 50 -28 -4 -7 -2 -8 5 -4 12 8 112 -82 252 -227 65 -67 66 -68 72 -42 5 30 -4 75 -15 75 -5 0 -17 0 -28 0 -17 0 -19 2 -8 14 7 8 16 12 21 9 4 -2 7 1 7 7 0 6 5 8 11 5 5 -4 18 -1 27 7 9 8 33 21 52 28 19 8 37 17 40 21 7 10 53 14 67 6 7 -4 9 -15 6 -25 -6 -14 -4 -15 8 -5 8 6 27 14 41 17 46 8 62 22 63 54 0 17 -3 28 -7 26 -4 -3 -8 4 -8 15 0 11 -5 32 -10 47 -13 33 -28 22 -32 -24 -2 -33 -10 -44 -38 -54 -13 -5 -16 7 -16 78 0 52 -5 89 -12 96 -7 7 -12 22 -12 34 0 13 -5 26 -10 29 -6 4 -8 11 -5 16 4 5 -1 16 -9 25 -9 8 -16 26 -16 39 0 28 -20 45 -21 18 -1 -25 -8 -65 -15 -83 -8 -20 -46 56 -46 91 0 15 -8 36 -19 48 -11 11 -17 21 -13 21 3 0 -7 13 -22 29 -39 39 -54 58 -54 70 0 5 -3 11 -7 13 -5 2 -26 30 -48 63 -22 33 -69 94 -105 136 -80 95 -129 153 -146 176 -12 17 -13 17 -14 1 0 -9 4 -19 9 -22 5 -4 16 -26 25 -51 l15 -45 -30 29 c-16 16 -29 32 -29 34 0 3 -24 30 -52 60 -141 149 -161 173 -164 196 -1 14 3 32 9 41 8 10 5 9 -9 -3 -23 -19 -34 -14 -34 16 0 11 -3 18 -6 14 -9 -9 -34 18 -34 36 0 26 -12 47 -23 40 -6 -3 -7 -1 -3 6 4 6 3 17 -2 24 -13 16 -21 77 -10 77 7 0 12 -19 11 -47 -1 -7 3 -11 7 -8 4 3 18 -12 31 -33 18 -30 23 -33 27 -18 2 10 -1 22 -7 25 -6 4 -12 16 -14 26 -2 11 -13 40 -25 65 -11 24 -18 48 -16 52 3 4 0 8 -6 8 -7 0 -9 7 -6 16 3 8 2 13 -3 10 -5 -3 -12 1 -15 10 -4 10 -2 13 6 8 7 -5 8 -3 3 6 -19 31 -23 239 -4 250 6 4 8 13 5 19 -4 6 -2 11 3 11 6 0 11 9 11 19 0 11 5 23 11 27 8 4 7 9 -2 15 -11 6 -10 9 2 14 11 4 14 14 11 31 -2 14 0 24 7 24 7 0 9 -4 6 -10 -3 -5 -4 -10 -1 -10 5 0 48 88 50 101 1 4 12 21 25 38 27 35 40 57 68 114 11 20 22 34 26 31 6 -6 11 11 5 19 -1 1 4 12 11 25 9 18 9 22 -1 20 -7 -2 -12 3 -10 10 4 22 -25 13 -87 -29z"/>
<path d="M3494 4218 c-3 -5 -10 -6 -15 -3 -5 4 -9 0 -9 -7 0 -20 -46 -80 -73 -95 -12 -7 -32 -12 -44 -13 -13 0 -23 -4 -23 -10 0 -5 -7 -10 -16 -10 -8 0 -12 -4 -9 -10 3 -5 3 -10 -2 -10 -12 0 -103 -86 -103 -98 0 -26 32 -18 67 17 54 54 140 76 190 48 34 -19 59 -57 103 -158 23 -52 68 -138 101 -191 74 -120 79 -136 89 -279 8 -124 28 -187 70 -224 l23 -20 -6 20 c-9 34 -17 106 -22 200 -3 56 -14 118 -29 165 -14 41 -29 103 -35 138 -5 34 -17 77 -26 94 -8 17 -13 40 -10 49 3 10 -1 31 -9 47 -8 16 -12 32 -9 36 4 3 2 6 -4 6 -6 0 -14 7 -17 16 -4 10 -2 13 7 8 9 -6 9 -4 -1 8 -7 8 -10 23 -6 32 3 9 1 16 -5 16 -6 0 -11 5 -11 11 0 5 6 7 13 3 6 -4 3 3 -8 16 -11 13 -14 20 -7 16 18 -10 15 -2 -8 24 -12 13 -18 30 -15 37 2 8 1 12 -4 9 -5 -3 -12 10 -15 29 -5 25 -12 35 -26 35 -23 0 -35 16 -18 23 8 4 7 6 -3 6 -9 1 -19 7 -22 15 -6 15 -45 18 -53 4z"/>
<path d="M3850 3933 c0 -14 3 -24 6 -21 3 4 19 2 35 -2 23 -7 29 -5 29 6 0 8 -8 17 -17 20 -10 3 -26 10 -35 15 -15 8 -18 5 -18 -18z"/>
<path d="M905 2943 c-4 -15 -8 -35 -9 -44 -3 -12 6 -18 28 -23 17 -3 42 -8 56 -11 24 -6 24 -6 6 9 -10 8 -23 13 -29 9 -13 -8 -27 17 -27 49 0 37 -18 45 -25 11z"/>
<path d="M2117 2858 c-26 -38 -71 -83 -86 -86 -8 -2 -32 -4 -53 -5 -36 -1 -37 -2 -16 -14 13 -7 33 -12 46 -13 26 0 29 -20 5 -44 -73 -70 -69 -69 -169 -63 -55 4 -103 12 -116 21 -31 19 -113 33 -103 16 4 -7 -3 -5 -16 4 -17 10 -39 14 -71 11 -39 -4 -52 -1 -73 19 -14 13 -25 31 -25 40 0 9 -4 16 -9 16 -5 0 -8 16 -5 35 4 36 -5 45 -25 21 -6 -7 -28 -14 -49 -15 -33 -1 -57 -4 -102 -11 -21 -3 29 -18 65 -19 24 -1 31 -6 32 -22 1 -12 9 -29 17 -38 17 -18 21 -59 8 -76 -4 -6 -19 -16 -34 -24 -27 -14 -33 -14 -233 14 -49 7 -73 13 -93 24 -11 6 -22 8 -25 4 -3 -3 -13 -3 -22 0 -8 4 -18 6 -21 6 -4 0 -11 5 -15 13 -5 7 -9 8 -9 3 0 -6 -9 -11 -20 -12 -11 -1 -18 2 -15 7 5 8 -73 6 -81 -3 -2 -2 33 -12 78 -21 155 -33 173 -37 185 -48 21 -17 15 -25 -17 -20 -18 3 -30 0 -30 -7 0 -6 -10 -11 -22 -11 -17 0 -19 3 -10 9 18 11 -1 18 -66 27 -26 3 -51 10 -57 15 -5 5 -18 9 -30 9 -20 -1 -20 -1 0 -15 11 -8 25 -18 31 -23 6 -5 22 -9 37 -9 16 0 35 -10 47 -24 l21 -24 -6 25 c-5 19 -4 21 4 10 6 -8 14 -15 18 -16 62 -4 133 -18 133 -25 0 -5 10 -5 23 0 25 9 50 4 41 -10 -9 -15 23 -10 36 6 7 8 22 13 34 11 11 -3 24 -5 29 -5 4 -1 7 -8 7 -17 0 -8 4 -13 9 -10 9 6 21 -40 21 -80 0 -20 -4 -22 -42 -19 -24 2 -77 4 -118 4 -230 2 -351 7 -372 16 -13 5 -41 53 -43 75 -3 19 -18 50 -24 50 -5 0 -14 20 -20 44 -14 56 -14 52 5 70 9 9 11 16 4 16 -7 0 -8 5 -1 17 7 13 2 23 -21 44 -19 16 -32 37 -33 55 -1 16 -3 42 -3 57 -1 16 -6 25 -12 22 -16 -10 -12 -61 11 -117 11 -29 24 -84 29 -122 6 -52 20 -93 54 -160 29 -59 47 -110 52 -146 3 -30 21 -91 40 -135 35 -84 64 -181 64 -217 0 -20 -4 -20 -130 -16 -113 3 -130 2 -127 -12 1 -8 6 -18 10 -21 10 -7 -133 -1 -183 8 -100 18 -112 22 -157 59 -52 43 -55 30 -13 -58 47 -96 136 -179 302 -282 43 -26 91 -63 107 -81 86 -99 469 -388 598 -454 50 -25 245 -73 388 -96 861 -135 809 -129 1190 -130 255 0 335 3 350 13 18 12 17 13 -12 9 -18 -2 -33 1 -33 6 0 5 -9 7 -20 4 -11 -3 -20 -1 -20 4 0 5 14 9 30 9 53 0 34 21 -32 36 -9 2 -36 14 -59 26 -30 15 -44 18 -47 10 -2 -7 -10 -12 -18 -12 -23 0 -16 -16 8 -17 24 -2 48 -27 48 -50 0 -17 -49 -28 -63 -14 -6 6 -19 11 -29 11 -10 0 -18 8 -19 18 0 14 -2 14 -9 -3 -5 -11 -9 -15 -9 -8 -1 7 -8 10 -18 6 -13 -4 -15 -3 -8 5 6 6 23 14 39 18 22 5 27 4 21 -6 -5 -9 -4 -11 3 -6 16 10 15 36 0 37 -7 1 -33 3 -58 4 -90 5 -153 14 -159 22 -3 4 -14 9 -25 11 -10 2 -24 9 -31 15 -10 9 -9 14 3 23 14 10 11 14 -16 28 -17 9 -38 16 -47 16 -9 0 -13 5 -10 10 3 6 -1 10 -9 10 -8 0 -17 4 -20 9 -4 5 3 7 14 4 11 -3 25 -3 32 0 7 2 16 4 19 3 4 0 17 8 28 18 19 17 20 21 6 28 -8 5 -15 16 -15 24 0 8 -4 13 -8 10 -4 -2 -9 7 -10 20 -1 20 5 28 31 39 21 9 36 10 44 4 7 -7 14 -6 18 1 4 6 16 8 26 5 11 -4 27 -1 36 7 14 11 15 11 9 0 -7 -11 -4 -11 12 -1 12 7 19 15 17 17 -9 10 26 32 50 32 14 0 24 4 21 9 -4 5 2 7 13 4 24 -6 33 8 15 25 -8 7 -14 8 -14 2 0 -5 -7 -10 -15 -10 -8 0 -14 6 -12 13 1 9 -10 11 -43 7 -25 -2 -88 -4 -140 -5 -75 0 -102 4 -123 18 -50 33 -82 151 -49 183 13 13 12 17 -4 29 -11 8 -23 15 -28 15 -5 0 -28 12 -52 27 -48 31 -89 107 -81 149 2 14 0 21 -6 17 -5 -3 -12 -1 -16 3 -3 5 -24 17 -46 27 -61 27 -105 70 -110 109 -3 18 -7 42 -9 53 -3 11 -5 26 -5 33 -1 7 -6 10 -11 7 -15 -9 -70 50 -70 74 0 12 -4 21 -10 21 -12 0 -13 97 -1 104 21 13 17 45 -8 72 -58 62 -71 87 -71 137 l0 49 63 -6 62 -5 -47 15 c-52 17 -75 44 -84 102 -6 38 -5 39 35 55 23 10 71 17 109 18 45 0 60 3 47 8 -34 14 -84 73 -91 107 -3 17 -1 41 5 53 16 28 -3 27 -22 -1z m-327 -265 c74 -8 141 -20 148 -26 18 -15 12 -78 -11 -102 -20 -22 -108 -31 -139 -14 -24 13 -119 23 -203 23 -38 -1 -62 2 -53 5 14 5 14 8 2 19 -8 7 -14 9 -14 5 0 -4 -13 -8 -30 -8 -16 0 -30 3 -30 8 0 4 5 7 11 7 5 0 7 5 4 10 -3 6 -1 10 6 10 7 0 5 6 -6 13 -10 8 -15 19 -11 25 4 7 1 12 -7 12 -17 0 -29 24 -19 35 9 9 180 -2 352 -22z m148 -199 c13 -9 33 -38 46 -64 34 -71 22 -84 -78 -87 -61 -1 -74 1 -70 12 5 11 -3 14 -33 13 -21 -1 -72 2 -113 7 -41 5 -87 8 -101 7 -16 -1 -26 3 -26 12 0 8 7 12 16 9 13 -4 13 -2 -1 10 -19 15 -25 43 -8 32 6 -3 10 -2 10 4 0 6 -17 13 -37 17 l-38 7 30 10 c26 9 168 19 330 25 32 1 59 -4 73 -14z m-637 -84 c18 -16 29 -36 26 -44 -3 -7 1 -23 8 -33 22 -31 8 -63 -27 -63 -23 0 -29 -4 -24 -15 4 -13 2 -14 -14 -5 -12 6 -20 7 -20 1 0 -5 6 -12 13 -15 6 -3 -1 -3 -18 0 -16 4 -52 8 -80 10 -49 4 -105 23 -105 36 0 3 -8 5 -17 3 -10 -2 -18 -4 -18 -5 0 -1 -8 -3 -17 -5 -10 -2 -16 2 -15 8 1 6 -8 13 -20 15 -17 2 -23 -2 -23 -15 0 -14 -4 -11 -19 10 -11 18 -21 25 -25 18 -13 -21 -23 -11 -31 32 -5 23 -9 46 -9 51 -1 5 25 10 57 11 32 2 57 -1 57 -6 0 -11 76 -7 87 5 5 4 4 7 -2 6 -5 -1 -17 -1 -25 0 -40 6 75 29 148 29 78 1 84 0 113 -29z m694 -100 c13 -5 26 -21 30 -37 3 -15 15 -36 25 -45 16 -15 17 -23 8 -48 l-10 -30 -197 5 c-108 4 -216 7 -241 7 -30 0 -38 3 -25 8 19 7 19 7 0 18 -16 9 -17 13 -6 21 7 5 14 20 14 33 0 18 5 24 25 26 14 1 28 5 31 8 3 3 -5 5 -19 4 -14 -1 -38 -1 -55 0 l-30 2 35 9 c19 5 103 13 185 17 83 4 163 8 179 9 15 1 38 -2 51 -7z m-935 -191 c23 0 23 -1 5 -9 -14 -6 -15 -9 -4 -9 8 -1 19 3 25 8 12 13 65 22 131 25 45 2 58 -2 85 -26 18 -15 37 -28 41 -28 5 0 6 -4 2 -9 -3 -5 -1 -12 5 -16 6 -4 7 -12 3 -18 -9 -15 28 13 44 33 10 12 11 11 6 -8 -11 -44 -152 -75 -175 -38 -5 7 -8 6 -8 -4 0 -12 -11 -14 -50 -12 -29 2 -50 9 -50 15 0 7 -7 3 -15 -7 -8 -11 -15 -16 -15 -10 0 13 -67 16 -75 4 -8 -13 -25 -3 -25 15 0 8 7 11 20 8 21 -6 28 11 10 22 -8 5 -7 12 2 23 10 13 7 13 -17 -2 -17 -11 -25 -14 -18 -5 6 8 13 19 15 24 1 6 12 9 23 8 18 -3 18 -2 3 8 -10 5 -18 15 -18 21 0 9 3 9 12 0 7 -7 23 -12 38 -13z m1100 -45 c6 -6 13 -24 16 -40 3 -16 9 -30 13 -32 5 -1 23 -16 41 -32 19 -17 37 -30 42 -30 4 0 8 -6 8 -14 0 -21 -93 -30 -199 -21 -47 4 -151 9 -231 11 -183 5 -191 6 -186 19 2 6 -6 10 -18 10 -11 0 -22 5 -24 10 -2 6 -12 13 -23 17 -22 9 -26 28 -4 28 8 0 15 5 15 11 0 5 -4 8 -9 4 -5 -3 -12 -1 -16 5 -3 5 1 10 10 10 9 0 14 4 10 9 -8 13 10 22 45 23 17 1 33 5 36 10 3 5 28 8 55 7 27 -2 51 0 55 3 11 11 352 4 364 -8z m-1732 -75 c13 -5 21 -13 18 -18 -3 -5 1 -12 10 -15 25 -9 34 -7 34 8 0 15 28 13 67 -6 11 -6 37 -9 57 -6 20 2 36 3 36 2 0 -1 3 -10 7 -20 4 -11 3 -15 -5 -10 -6 3 -13 -3 -17 -14 -4 -11 -10 -18 -15 -15 -4 3 -15 3 -23 -1 -12 -4 -12 -10 -3 -29 10 -23 16 -25 80 -24 38 1 71 -3 75 -9 3 -5 17 -12 31 -15 21 -4 20 -4 -7 -6 -18 0 -33 -5 -33 -10 0 -4 -37 -11 -82 -14 -77 -6 -86 -5 -142 23 -34 16 -81 48 -106 72 -47 44 -100 109 -100 122 0 8 84 -3 118 -15z m1869 -110 c21 -7 39 -25 58 -62 16 -29 43 -69 62 -90 28 -32 32 -41 22 -58 -12 -23 -5 -54 10 -44 6 3 8 -4 6 -15 -2 -11 0 -18 4 -16 4 3 15 -13 25 -34 10 -22 22 -40 28 -40 11 0 37 -29 38 -43 0 -8 -240 -2 -293 8 -17 3 -40 7 -49 9 -10 1 -21 5 -24 9 -4 4 -25 7 -46 7 -21 0 -38 5 -38 11 0 6 -7 9 -15 5 -8 -3 -15 -2 -15 2 0 4 -3 18 -7 31 -5 20 -3 23 11 18 10 -4 15 -3 11 3 -6 9 1 11 70 24 17 4 41 9 55 12 14 3 30 7 35 8 6 1 16 6 24 10 10 6 12 5 7 -2 -9 -16 -4 -15 30 3 16 8 25 15 19 16 -5 0 -18 2 -29 4 -26 5 -47 -5 -40 -19 3 -6 -1 -3 -9 7 -8 10 -19 17 -23 15 -5 -1 -54 1 -109 6 -55 4 -147 9 -205 11 -125 4 -126 5 -173 32 -34 21 -49 43 -28 43 5 0 12 11 15 24 5 21 14 25 65 31 33 4 65 3 72 -1 7 -4 9 -3 6 3 -5 8 75 17 231 26 6 0 12 5 12 10 0 5 7 7 15 3 9 -3 15 0 15 9 0 15 17 21 75 28 17 2 35 5 41 6 6 0 25 -4 41 -10z m-1096 -57 c-7 -2 -19 -1 -29 3 -14 5 -14 7 -2 15 9 5 20 4 28 -3 10 -8 11 -12 3 -15z m235 -12 c3 0 4 10 1 21 -4 16 -3 19 5 11 8 -8 17 -8 30 -1 18 10 65 3 54 -8 -3 -3 2 -18 11 -33 26 -46 13 -60 -49 -53 -29 3 -55 10 -56 15 -2 4 -8 6 -13 2 -5 -3 -9 1 -9 8 0 9 -3 9 -10 -2 -7 -11 -10 -11 -10 -2 0 7 -4 10 -10 7 -5 -3 -10 -1 -10 5 0 6 -4 8 -10 5 -18 -11 -11 4 12 24 21 20 44 19 32 -1 -4 -6 -2 -8 4 -5 5 4 8 17 6 30 l-5 22 10 -22 c6 -13 13 -23 17 -23z m-301 13 c-16 -13 -17 -15 -2 -10 20 7 49 -2 42 -13 -6 -9 -44 -2 -61 11 -6 5 -14 6 -17 2 -4 -3 -7 -1 -7 6 0 7 6 11 13 8 8 -3 20 -1 28 4 23 14 26 10 4 -8z m189 -16 c-3 -7 2 -3 10 7 9 11 16 16 16 10 0 -20 -17 -34 -41 -34 -76 -1 -99 1 -99 9 0 13 12 21 23 14 19 -11 82 -6 79 6 -1 7 2 10 8 6 6 -3 8 -12 4 -18z m-549 -95 c0 -5 4 -14 9 -19 5 -5 6 -3 2 5 -11 18 10 15 57 -10 23 -12 50 -22 59 -23 10 -1 21 -5 25 -10 5 -4 -16 -5 -46 -2 -33 4 -59 13 -68 24 -8 10 -11 12 -7 4 5 -11 3 -13 -10 -8 -10 4 -22 7 -27 7 -5 0 -9 8 -10 18 0 14 -2 14 -9 -3 -7 -17 -9 -17 -9 -2 -1 9 -5 17 -11 17 -5 0 -10 4 -10 8 0 4 12 7 28 6 15 0 27 -6 27 -12z m1052 -134 c32 0 42 -4 46 -19 3 -10 1 -21 -3 -24 -15 -9 -91 7 -106 22 -20 20 -18 37 4 28 9 -4 36 -7 59 -7z m1287 -564 c3 -8 2 -12 -4 -9 -6 3 -10 10 -10 16 0 14 7 11 14 -7z"/>
<path d="M1700 1850 c0 -5 5 -10 11 -10 5 0 7 5 4 10 -3 6 -8 10 -11 10 -2 0 -4 -4 -4 -10z"/>
<path d="M596 1821 c-4 -5 3 -7 14 -4 23 6 26 13 6 13 -8 0 -17 -4 -20 -9z"/>
<path d="M490 1800 c0 -5 5 -10 11 -10 5 0 7 5 4 10 -3 6 -8 10 -11 10 -2 0 -4 -4 -4 -10z"/>
<path d="M2165 1760 c27 -12 35 -12 35 0 0 6 -12 10 -27 9 -25 0 -26 -1 -8 -9z"/>
<path d="M2215 1760 c4 -6 11 -8 16 -5 14 9 11 15 -7 15 -8 0 -12 -5 -9 -10z"/>
<path d="M768 2673 c7 -3 16 -2 19 1 4 3 -2 6 -13 5 -11 0 -14 -3 -6 -6z"/>
<path d="M838 2633 c7 -3 16 -2 19 1 4 3 -2 6 -13 5 -11 0 -14 -3 -6 -6z"/>
<path d="M1028 2593 c6 -2 18 -2 25 0 6 3 1 5 -13 5 -14 0 -19 -2 -12 -5z"/>
<path d="M3750 2520 c0 -5 5 -10 10 -10 6 0 10 5 10 10 0 6 -4 10 -10 10 -5 0 -10 -4 -10 -10z"/>
<path d="M2980 2309 c-8 -5 -10 -9 -5 -9 6 0 -5 -10 -23 -21 -30 -20 -31 -22 -15 -35 17 -13 17 -14 1 -8 -14 5 -18 1 -18 -17 0 -18 3 -20 12 -11 15 15 58 16 58 2 0 -5 7 -10 16 -10 13 0 14 3 4 15 -7 8 -9 23 -6 32 4 10 4 14 0 11 -4 -4 -15 -3 -26 3 -19 10 -19 11 -1 24 10 7 21 11 25 9 5 -3 8 -1 8 5 0 15 -15 21 -30 10z"/>
<path d="M3074 2261 c17 -11 33 -18 38 -15 4 3 8 0 8 -5 0 -14 37 -14 45 -1 3 6 -2 10 -12 10 -11 0 -23 4 -28 9 -6 4 -26 11 -45 15 l-35 6 29 -19z"/>
<path d="M3195 2256 c28 -14 55 -25 60 -25 15 0 -56 36 -85 43 -14 3 -2 -5 25 -18z"/>
<path d="M3290 2216 c0 -2 7 -7 16 -10 8 -3 12 -2 9 4 -6 10 -25 14 -25 6z"/>
<path d="M2883 2189 c-12 -15 6 -67 35 -101 10 -13 10 -18 -1 -30 -7 -7 -12 -19 -9 -26 2 -6 -1 -12 -6 -12 -14 0 -6 -34 24 -95 8 -17 12 -39 8 -48 -5 -13 -2 -16 10 -11 9 3 16 10 16 16 0 5 4 7 9 4 5 -4 11 -1 13 6 2 6 -11 26 -29 44 -40 40 -45 94 -13 121 12 10 15 20 9 23 -9 6 -15 35 -18 89 -1 16 -6 21 -15 18 -8 -3 -16 -1 -18 5 -2 6 -8 5 -15 -3z"/>
<path d="M3117 2159 c7 -7 15 -10 18 -7 3 3 -2 9 -12 12 -14 6 -15 5 -6 -5z"/>
<path d="M3250 2116 c0 -2 7 -6 15 -10 8 -3 15 -1 15 4 0 6 -7 10 -15 10 -8 0 -15 -2 -15 -4z"/>
<path d="M3728 2023 c-10 -2 -18 -9 -18 -14 0 -6 10 -5 23 2 37 20 36 23 -5 12z"/>
<path d="M2769 1751 c30 -11 75 -22 100 -26 53 -8 84 -22 76 -35 -3 -4 3 -6 13 -3 10 2 24 -3 31 -11 8 -9 19 -16 26 -16 8 0 10 -9 7 -25 -2 -14 -11 -25 -19 -25 -8 0 -26 -9 -40 -20 -14 -11 -20 -20 -13 -20 7 0 26 -13 42 -30 38 -40 55 -39 52 3 -1 17 -3 33 -4 35 -11 15 8 92 23 92 5 0 -13 23 -41 50 -28 28 -54 50 -58 50 -4 0 -16 -8 -26 -17 -17 -15 -27 -16 -86 -5 -137 23 -140 24 -83 3z"/>
<path d="M2775 1590 c3 -5 12 -10 20 -10 8 0 17 5 20 10 4 6 -5 10 -20 10 -15 0 -24 -4 -20 -10z"/>
<path d="M2830 1590 c0 -13 11 -13 30 0 12 8 11 10 -7 10 -13 0 -23 -4 -23 -10z"/>
<path d="M2683 1583 c9 -2 23 -2 30 0 6 3 -1 5 -18 5 -16 0 -22 -2 -12 -5z"/>
<path d="M3175 1473 c-16 -2 -37 -7 -45 -10 -8 -3 -23 -8 -33 -10 -10 -1 -30 -10 -45 -19 -27 -15 -26 -15 22 -10 27 4 56 12 64 19 8 6 17 11 19 10 11 -9 42 -1 47 12 3 8 4 14 3 14 -1 -1 -15 -4 -32 -6z"/>
<path d="M3110 1400 c-9 -6 -10 -10 -3 -10 6 0 15 5 18 10 8 12 4 12 -15 0z"/>
<path d="M2737 1063 c-10 -10 -8 -23 4 -23 5 0 8 4 5 9 -4 5 0 12 6 14 7 3 8 6 2 6 -6 1 -14 -2 -17 -6z"/>
<path d="M3760 1020 c-8 -5 -10 -10 -5 -10 6 0 17 5 25 10 8 5 11 10 5 10 -5 0 -17 -5 -25 -10z"/>
<path d="M3688 993 c7 -3 16 -2 19 1 4 3 -2 6 -13 5 -11 0 -14 -3 -6 -6z"/>
<path d="M3528 973 c-27 -2 -48 -9 -48 -14 0 -11 90 -3 138 11 25 8 25 8 -8 7 -19 0 -56 -2 -82 -4z"/>
<path d="M3280 950 c-9 -6 -10 -10 -3 -10 6 0 15 5 18 10 8 12 4 12 -15 0z"/>
</g>
</svg>
